<svg xmlns="http://www.w3.org/2000/svg" version="1.1" xmlns:xlink="http://www.w3.org/1999/xlink" xmlns:svgjs="http://svgjs.com/svgjs" width="150" height="150"><svg width="150" height="150" viewBox="0 0 150 150" version="1.1" id="SvgjsSvg1005" xmlns="http://www.w3.org/2000/svg" xmlns:svg="http://www.w3.org/2000/svg">
  <defs id="SvgjsDefs1004"></defs>
  <g id="SvgjsG1003">
    <g id="SvgjsG1002" transform="matrix(0.70288556,0,0,0.70288556,-87.860695,-135.86567)">
      <circle r="106.703" cx="231.703" cy="300" fill="#1d4ed8" id="SvgjsCircle1001" style="stroke-width:0.640218"></circle>
      <path d="m 271.03534,282.47135 h -11.67387 q -1.51724,-4.60528 -3.96268,-8.28238 -2.42759,-3.67708 -5.78338,-6.28317 -3.35579,-2.58824 -7.60408,-3.96269 -4.24828,-1.37444 -9.31767,-1.37444 v 0 q -8.30022,0 -15.10105,4.30183 -6.80082,4.28399 -10.81706,12.63776 -4.01624,8.35377 -4.01624,20.49173 v 0 q 0,12.13796 4.06979,20.49173 4.05194,8.35378 10.99556,12.63777 6.94363,4.28398 15.60085,4.28398 v 0 q 8.03247,0 14.17286,-3.44504 6.14038,-3.44504 9.58542,-9.76391 3.44503,-6.31889 3.44503,-14.90471 v 0 l 3.48074,0.73185 H 235.9959 v -10.03167 h 35.59279 v 10.03167 q 0,11.54891 -4.90874,20.08118 -4.90873,8.53228 -13.5124,13.22681 -8.60368,4.67668 -19.74204,4.67668 v 0 q -12.40571,0 -21.79478,-5.85478 -9.37122,-5.83693 -14.60125,-16.60044 -5.21218,-10.78136 -5.21218,-25.56112 v 0 q 0,-11.08481 2.98094,-19.97409 2.98094,-8.87141 8.46087,-15.1189 5.47994,-6.26532 12.95906,-9.58541 7.49697,-3.33794 16.47549,-3.33794 v 0 q 7.40773,0 13.81586,2.21339 6.40813,2.2134 11.45966,6.24748 5.03369,4.05194 8.40732,9.63897 3.39149,5.58703 4.65884,12.38786 z" fill="#ffffff" id="SvgjsPath1000" style="stroke-width:0.640218"></path>
    </g>
  </g>
</svg><style>@media (prefers-color-scheme: light) { :root { filter: none; } }
</style></svg>